<svg width="50" height="49" viewBox="0 0 50 49" fill="none" xmlns="http://www.w3.org/2000/svg">
<path fill-rule="evenodd" clip-rule="evenodd" d="M50 44.3333V49H38.3255V44.3333H50ZM35.9906 44.3333V49H31.3208V44.3333H35.9906ZM50 37.3333V42H38.3255V37.3333H50ZM35.9906 37.3333V42H31.3208V37.3333H35.9906ZM14.41 28.5662C16.9452 31.0997 20.4475 32.6667 24.3161 32.6667C25.9536 32.6667 27.5254 32.3859 28.986 31.87L28.9861 36.7452C27.4935 37.1291 25.9287 37.3333 24.3161 37.3333C19.158 37.3333 14.4881 35.244 11.1078 31.8659L14.41 28.5662ZM50 30.3333V35H38.3255V30.3333H50ZM35.9906 30.3333V35H31.3208V30.3333H35.9906ZM24.3161 0C34.6324 0 42.9953 8.35735 42.9953 18.6667C42.9953 22.0667 42.0857 25.2545 40.4963 28.0001L34.758 28.0003C36.9765 25.5234 38.3255 22.2525 38.3255 18.6667C38.3255 10.9347 32.0533 4.66667 24.3161 4.66667C16.579 4.66667 10.3067 10.9347 10.3067 18.6667C10.3067 19.107 10.3271 19.5425 10.3669 19.9724L12.6416 17.7002L15.9437 21L7.97184 28.9665L0 21L3.30204 17.7002L5.69012 20.0858C5.65488 19.6174 5.63694 19.1441 5.63694 18.6667C5.63694 8.35735 13.9999 0 24.3161 0ZM26.651 7V17.4067L32.605 21.3967L30.0366 25.27L21.9812 19.9267V7H26.651Z" fill="#D9D9D9"/>
</svg>
