<svg width="48" height="50" viewBox="0 0 48 50" fill="none" xmlns="http://www.w3.org/2000/svg">
<path d="M0 39.6326H14.6324C15.7312 39.6326 16.8193 39.849 17.8345 40.2695C18.8497 40.69 19.7722 41.3064 20.5492 42.0834C21.3262 42.8604 21.9425 43.7828 22.3631 44.798C22.7836 45.8132 23 46.9013 23 48.0002H0L0 39.6326Z" stroke="#D9D9D9" stroke-width="3" stroke-miterlimit="10"/>
<path d="M31.3676 39.6326H46V48.0002H23C23 45.781 23.8816 43.6526 25.4508 42.0834C27.0201 40.5142 29.1484 39.6326 31.3676 39.6326Z" stroke="#D9D9D9" stroke-width="3" stroke-miterlimit="10"/>
<path d="M0 12.4486H14.6324C15.7312 12.4486 16.8193 12.665 17.8345 13.0856C18.8497 13.5061 19.7722 14.1224 20.5492 14.8994C21.3262 15.6764 21.9425 16.5989 22.3631 17.6141C22.7836 18.6293 23 19.7174 23 20.8162V48H0L0 12.4486Z" stroke="#D9D9D9" stroke-width="3" stroke-miterlimit="10"/>
<path d="M39.7352 12.4486H46V48H23V20.8162C23 18.597 23.8816 16.4687 25.4508 14.8994C27.0201 13.3302 29.1484 12.4486 31.3676 12.4486" stroke="#D9D9D9" stroke-width="3" stroke-miterlimit="10"/>
<path d="M39.7352 27.1905L35.5514 31.3743L31.3676 27.1905V6.18387C31.3647 5.63363 31.4709 5.08828 31.6802 4.57936C31.8894 4.07045 32.1975 3.60808 32.5865 3.21899C32.9756 2.82991 33.438 2.52184 33.9469 2.31262C34.4558 2.10339 35.0012 1.99715 35.5514 2.00006C36.661 2.00006 37.7252 2.44085 38.5098 3.22547C39.2944 4.01008 39.7352 5.07425 39.7352 6.18387V27.1905Z" stroke="#D9D9D9" stroke-width="3" stroke-miterlimit="10"/>
</svg>
